<svg width="500" height="500" viewBox="0 0 500 500" fill="none" xmlns="http://www.w3.org/2000/svg">
<rect width="500" height="500" rx="60" fill="#092256"/>
<path d="M249.495 307.3C247.295 152.8 187.095 65.7 167.995 42H238.695C299.595 210.9 249.495 307.3 249.495 307.3Z" fill="#32B452"/>
<path d="M271.395 444.9L252.795 458.1L233.695 445.8C192.395 419.5 120.995 362 105.895 272.7C95.3949 211.6 113.495 148.9 159.595 85.9C167.695 96.8 182.695 119.6 195.495 154.6C174.595 191.8 166.895 227.6 172.595 261.4C181.395 313.4 219.895 352 250.995 375.4C318.895 319 341.995 247.1 321.395 156.2H390.395C412.295 274.6 371.395 374.1 271.395 444.9Z" fill="white"/>
</svg>
